<svg width="21" height="30" viewBox="0 0 21 30" fill="none" xmlns="http://www.w3.org/2000/svg">
<g clip-path="url(#clip0_74_2)">
<path d="M10.5185 23.0018H13.4633C13.5604 23.0018 13.6212 23.116 13.5733 23.2088L12.099 26.0732L10.5185 29.1446L8.9379 26.0732L7.46361 23.2088C7.41631 23.116 7.47713 23.0018 7.57357 23.0018H10.5185V23.0018Z" fill="black"/>
<path d="M7.12696 4.39198V22.6074C7.12696 22.702 7.08887 22.7499 7.06676 22.6829L0.9841 4.28571H7.09194C7.11099 4.28571 7.12696 4.33362 7.12696 4.39198Z" fill="black"/>
<path d="M13.873 22.5269V4.47245C13.873 4.36925 13.9007 4.28571 13.9345 4.28571H20.0159L13.9781 22.659C13.9394 22.7769 13.873 22.6934 13.873 22.5269Z" fill="black"/>
<path d="M13.51 22.7143H7.49002C7.45623 22.7143 7.42859 22.6866 7.42859 22.6528V4.34713C7.42859 4.31335 7.45623 4.28571 7.49002 4.28571H13.51C13.5438 4.28571 13.5714 4.31335 13.5714 4.34713V22.6528C13.5714 22.6866 13.5438 22.7143 13.51 22.7143Z" fill="black"/>
<path d="M13.5898 0.39361V3.85204C13.5898 3.92084 13.5622 3.97612 13.5284 3.97612H7.44699L13.5241 0.29471C13.5567 0.275053 13.5898 0.324196 13.5898 0.39361Z" fill="black"/>
</g>
<defs>
<clipPath id="clip0_74_2">
<rect width="21" height="30" fill="white"/>
</clipPath>
</defs>
</svg>
